<svg width="32" height="32" viewBox="0 0 32 32" fill="none" xmlns="http://www.w3.org/2000/svg">
<path d="M27 4H5C2.79086 4 1 5.79086 1 8V24C1 26.2091 2.79086 28 5 28H27C29.2091 28 31 26.2091 31 24V8C31 5.79086 29.2091 4 27 4Z" fill="#215230" fill-opacity="0.9"/>
<path d="M25.469 15.0078C25.574 14.5018 24.853 11.8368 25.377 12.2478C25.448 12.0638 25.089 11.6238 24.987 11.3848C24.625 12.4918 25.457 14.6658 25.187 16.1338C24.982 16.5648 23.58 17.0818 23.25 17.2678C23.99 17.4858 25.751 16.6168 25.469 15.0078Z" fill="white" fill-opacity="0.9"/>
<path d="M10.5068 16.0048C10.6958 15.6628 10.7368 15.2938 10.7098 14.8858C10.9948 14.7698 11.3348 14.5768 11.4488 14.5628C11.3708 14.8308 11.5568 15.1198 11.9338 15.0828C12.0088 17.2258 12.2798 16.7778 12.1688 15.0218C12.4128 14.9088 12.4538 14.6908 12.5448 14.5978C13.0738 15.4648 13.8468 14.3178 13.3628 13.8458C13.3578 13.8848 13.2448 14.2608 13.2448 14.2608C13.2448 14.2608 13.3528 14.3748 13.3578 14.4308C13.2408 14.5708 12.7038 14.4758 12.7368 14.2588C12.7628 14.1998 12.8888 13.8958 12.7088 14.0768C12.5458 14.2428 12.4618 14.5948 12.1348 14.6548C12.1558 13.9168 11.7378 12.5778 11.9368 12.1358C12.1228 12.3688 12.1258 12.2048 12.0118 11.9758C11.8228 11.6388 11.7248 10.9948 11.5428 11.6928C11.7318 12.4788 11.7598 13.7708 11.8918 14.6548C11.5308 14.5848 11.6438 14.3298 11.6478 14.1658C11.5988 14.1328 10.9498 14.4788 10.6798 14.5618C10.6478 14.2878 10.6078 14.0408 10.5908 13.8378C11.6028 13.7408 11.2138 12.5238 11.0048 11.9548C11.0298 11.9208 11.3018 12.1518 11.1378 11.8788C10.8868 11.5618 10.7798 11.1978 10.6608 11.7998C10.8178 12.0938 10.9618 12.8888 11.1118 13.2198C11.0088 13.2928 10.7748 13.4148 10.5428 13.4078C10.5618 13.0598 10.2618 12.2358 10.4958 12.1748C10.6568 12.3598 10.6808 12.2798 10.5678 12.0488C10.3728 11.7518 10.2188 11.0008 10.0798 11.7278C10.2468 12.0708 10.1758 12.5698 10.2868 13.3368C9.65481 12.9988 10.1538 11.9518 9.63481 11.4518C9.61081 11.5088 9.50481 11.8618 9.50481 11.8618C10.0198 12.5918 9.16681 14.2048 8.33481 13.1928C8.23681 12.6488 8.81081 10.9228 7.99881 12.2358C7.83881 12.7648 7.44381 14.3698 6.98581 13.1628C6.89681 12.8268 7.08381 11.8828 6.87081 12.6598C6.75181 12.9528 6.91581 14.1028 7.43781 13.9678C7.90881 13.7148 7.92581 12.5148 8.29181 12.2138C7.56781 13.7438 9.26881 14.8128 9.72081 12.9608C9.73381 13.2478 9.94481 13.7098 10.3328 13.8088C10.3558 14.0368 10.3928 14.3338 10.4268 14.6468C10.3548 14.6688 10.2828 14.6888 10.2098 14.7058C9.60481 13.1298 8.19081 15.5978 10.0308 15.1068C10.0548 15.1788 10.0708 15.2498 10.0728 15.3138C9.22081 16.5008 6.10681 16.4988 8.13881 14.4248C8.20481 14.4488 8.32981 14.5718 8.31881 14.5828C8.39181 14.4708 8.42881 14.3508 8.22881 14.2748C8.55881 13.3988 7.35381 14.1158 8.08881 14.3938C7.93981 14.5498 7.58881 14.7788 7.37381 14.9128C7.20681 15.0068 6.69381 15.3198 6.57081 15.3918C6.51381 15.4958 7.02581 15.1788 7.18081 15.1258C5.69281 17.9618 9.49481 17.5058 10.5068 16.0048ZM7.29881 15.0668C7.40481 15.0138 7.50581 14.9628 7.58881 14.9168C6.22581 17.2808 10.2068 16.7288 10.2528 15.0478C10.3218 15.0268 10.3908 15.0038 10.4608 14.9798C10.4848 15.2348 10.5018 15.4848 10.5028 15.7028C10.1378 16.1318 9.29981 16.6308 8.55781 16.8338C7.18981 17.2668 6.70581 15.8678 7.29881 15.0678V15.0668Z" fill="white" fill-opacity="0.9"/>
<path d="M16.3416 16.6108C16.5836 16.3438 18.2566 15.8898 18.5406 15.7468C18.5656 15.6758 18.6886 15.4258 18.6966 15.3738C18.1396 15.4238 16.6076 15.5078 15.9966 15.4768C16.1226 15.3688 16.7326 15.0548 17.1786 14.9228C17.2206 14.9968 17.2516 15.0708 17.2576 15.1348C17.2896 15.1018 17.3136 14.9928 17.3056 14.8818C17.5986 14.7888 17.7486 14.7578 17.8136 14.7398C17.8546 14.6868 17.9276 14.4718 17.9386 14.3148C17.5796 13.6558 16.4366 13.8688 16.9816 14.6368C16.5246 14.8288 15.7596 15.1778 15.5416 15.4928L15.5066 15.5098C15.4976 15.5268 15.4376 15.7758 15.4176 15.8528C15.1556 15.0708 15.0766 14.0548 14.6226 13.7598C14.3756 14.2658 15.1296 15.2718 15.1396 15.8158C14.9976 16.1458 13.1486 17.5728 12.8306 16.7548C13.9646 16.3238 15.1346 15.5698 14.1666 14.4658C14.1566 14.4248 14.2816 14.4828 14.3546 14.4858C14.4076 14.3728 14.0066 14.1388 13.9066 14.0258C13.8176 14.0098 13.8036 14.3288 13.8046 14.4058C13.9276 14.5848 14.2966 15.2928 14.3906 15.5078C14.2516 15.6848 13.5536 16.0608 12.8726 16.3708C12.8776 16.1948 13.2866 15.7148 13.1716 15.5848C12.8886 16.0998 12.8496 15.2618 13.0496 15.0998C13.2506 14.4578 12.3866 16.0508 12.9596 15.9968C12.8996 16.1108 12.8256 16.2498 12.7726 16.4158C11.9806 16.7848 10.7726 17.1358 10.2446 17.3088C10.2736 17.2148 10.2696 17.1348 10.2386 17.1588C9.69663 17.7958 10.2216 16.3488 10.1426 16.4888C9.84063 16.7188 9.66263 18.0788 10.2296 17.3498C10.6696 17.2508 12.1476 17.1468 12.7006 16.8158C12.7846 18.3148 15.3276 16.5188 15.2136 15.7538C15.2776 16.6598 15.7636 17.2928 17.0606 17.3628C17.0636 17.2598 17.0226 16.9378 17.0226 16.9378C16.8586 16.9148 16.4436 16.8518 16.3426 16.6118L16.3416 16.6108ZM15.4286 15.8808C15.6856 15.8858 17.0836 15.8488 17.3496 15.8408C16.8586 16.0118 16.1786 16.1118 16.2096 16.8008C15.8066 16.7098 15.5856 16.3368 15.4286 15.8808Z" fill="white" fill-opacity="0.9"/>
<path d="M12.823 13.8161C13.282 13.5701 13.305 12.4181 13.677 12.1311C12.912 13.6041 14.727 14.5761 15.081 12.7981C15.403 14.4991 17.261 13.4381 16.383 12.1071C16.142 11.5581 16.611 12.1301 16.449 11.7731C16.198 11.4571 16.091 11.0921 15.972 11.6941C16.132 11.9851 16.289 12.7791 16.423 13.1141C15.064 13.8341 15.496 11.9481 14.995 11.2891C14.971 11.3461 14.865 11.6991 14.865 11.6991C15.703 13.5821 12.981 14.0431 13.867 11.8361C13.42 11.1141 13.228 13.4931 12.722 13.4501C12.311 13.4501 12.309 12.5371 12.364 12.3431C12.072 12.3621 12.219 13.9961 12.823 13.8161Z" fill="white" fill-opacity="0.9"/>
<path d="M23.776 14.2323C23.833 15.1813 23.924 16.0843 23.893 16.7563C24.242 16.4003 24.048 15.2623 24.038 14.5333C24.476 15.0523 24.957 15.6463 25.062 16.2113C25.075 16.2473 25.131 16.1013 25.122 15.8733C25.17 15.4733 24.457 14.5613 24.007 14.0853C24.065 13.6243 23.646 12.4203 23.893 12.1513C24.054 12.3373 24.078 12.2563 23.965 12.0253C23.771 11.7213 23.628 11.0163 23.489 11.7273C23.659 12.0943 23.623 12.9723 23.739 13.7843C23.354 13.3543 23.112 13.0973 22.911 12.8783C22.922 12.6893 22.73 12.0863 22.928 12.1623C23.089 12.3473 23.113 12.2673 23 12.0353C22.795 11.7113 22.652 11.0113 22.509 11.7493C22.642 11.9423 22.582 12.1663 22.638 12.5633C22.338 12.1213 21.954 11.9363 22.47 11.9853C22.258 11.8363 21.441 11.0663 21.657 11.8143C21.962 11.9573 22.287 12.6323 22.679 13.0063C22.742 13.8533 22.937 15.2273 22.967 16.0213C22.158 16.7323 22.007 16.0323 21.542 15.7753C21.544 15.5503 21.537 15.3313 21.537 15.2023C21.647 14.6973 20.958 11.8783 21.496 12.2943C21.454 12.0643 21.029 10.8803 20.928 11.7393C21.153 12.5123 21.183 14.1323 21.299 15.2013C21.31 15.3023 21.323 15.4923 21.334 15.6983C21.332 15.6983 21.33 15.6963 21.33 15.6963C20.666 15.8863 20.365 17.9613 19.629 16.7623C20.963 15.7603 20.039 13.4413 19.956 12.1493C19.964 12.0673 20.095 12.2613 20.163 12.2753C20.212 12.0883 19.882 11.6053 19.764 11.3633C19.288 12.3353 20.515 14.4733 20.048 15.7843C20.109 15.1553 19.363 14.3923 18.827 13.9013C18.875 13.6343 18.308 11.7733 18.803 12.2923C18.848 12.2693 18.798 12.1323 18.736 12.0103C18.538 11.6793 18.424 11.0353 18.26 11.7373C18.397 11.9103 18.457 13.3573 18.547 13.6413C18.23 13.2713 16.692 12.1793 17.424 12.2793C17.418 12.2593 17.386 12.2113 17.305 12.1623C17.029 12.0723 16.432 11.3743 16.611 12.1083C16.649 12.1113 16.717 12.1573 16.766 12.2153C17.145 12.7333 18.029 13.5853 18.609 14.1013C18.83 16.8773 19.208 17.6473 18.887 14.3683C19.348 14.8373 19.882 15.3443 19.99 15.9333C19.893 16.1343 19.752 16.3133 19.545 16.4583C19.487 16.0793 19.55 15.7723 19.495 15.7433C19.38 15.8133 19.414 16.2993 19.436 16.5333C17.807 17.4093 17.543 17.6213 19.499 16.8443C20.178 18.5503 20.628 16.4363 21.303 16.0613C21.321 16.0773 21.336 16.0863 21.354 16.1013C21.361 16.3163 21.362 16.5003 21.353 16.5603C21.443 16.5593 21.492 16.4203 21.518 16.2303C23.485 17.7673 23.215 14.8593 22.973 13.3423C23.303 13.7263 23.515 13.9503 23.779 14.2303L23.776 14.2323Z" fill="white" fill-opacity="0.9"/>
<path d="M22.1585 20.6595H20.6585C20.7735 20.5765 20.8345 20.4545 20.8175 20.3325C20.8075 20.2555 20.7305 20.1975 20.6365 20.1895H20.5895C20.4755 20.2005 20.3935 20.2825 20.4055 20.3725L20.4105 20.4075L20.4165 20.4605C20.4225 20.5275 20.4165 20.5945 20.3975 20.6595H9.3125C9.4775 20.8995 9.7775 21.0455 10.1015 21.0455L20.2175 21.0395C20.1015 21.1225 20.0415 21.2445 20.0575 21.3675C20.0695 21.4575 20.1715 21.5215 20.2845 21.5105C20.3985 21.4995 20.4805 21.4175 20.4685 21.3275L20.4635 21.2925L20.4575 21.2395C20.4515 21.1725 20.4575 21.1055 20.4765 21.0395H21.7245L21.7595 21.0975C21.7905 21.1505 21.8305 21.1975 21.8765 21.2395L21.9405 21.2925C22.0665 21.3805 22.2275 21.4325 22.3965 21.4325C22.5565 21.4325 22.6855 21.3215 22.6855 21.1845V21.1125C22.6855 20.8625 22.4485 20.6595 22.1565 20.6595H22.1585Z" fill="white" fill-opacity="0.9"/>
</svg>
