<svg width="32" height="32" viewBox="0 0 32 32" fill="none" xmlns="http://www.w3.org/2000/svg">
<path d="M1 11H31V21H1V11Z" fill="white" fill-opacity="0.9"/>
<path d="M5 4H27C29.208 4 31 5.792 31 8V12H1V8C1 5.792 2.792 4 5 4Z" fill="#4D9E4A" fill-opacity="0.9"/>
<path d="M27 28L5 28C2.792 28 1 26.208 1 24V20L31 20V24C31 26.208 29.208 28 27 28Z" fill="#C92A1D" fill-opacity="0.9"/>
<path d="M18.0626 16.8041C18.4526 15.6051 18.0836 14.2901 17.1286 13.4671C18.1666 15.0031 17.7926 17.0781 16.3036 18.1591L16.4076 15.5991V13.5841C16.2466 13.5071 16.1066 13.3901 16.0026 13.2441C15.8986 13.3891 15.7596 13.5061 15.5976 13.5841V15.5991L15.7016 18.1591C14.2126 17.0781 13.8376 15.0031 14.8766 13.4671C13.9206 14.2891 13.5526 15.6051 13.9426 16.8041C14.2056 17.6131 14.7676 18.2411 15.4656 18.6071C15.0386 18.7631 14.5826 18.8341 14.1236 18.8111C14.6626 18.9861 15.2146 19.0061 15.7316 18.8971L15.7356 19.0051L16.0026 19.3721L16.2696 19.0051L16.2736 18.8971C16.7906 19.0061 17.3426 18.9861 17.8816 18.8111C17.4226 18.8331 16.9666 18.7621 16.5396 18.6071C17.2386 18.2411 17.7996 17.6131 18.0626 16.8041Z" fill="#C92A1D" fill-opacity="0.9"/>
<path d="M19.0763 14.6343C18.7213 14.0203 18.1333 13.5763 17.4453 13.4043C18.9583 14.5423 19.2633 16.6913 18.1253 18.2053C18.1233 18.2083 18.1213 18.2103 18.1193 18.2133C19.3713 17.4893 19.8003 15.8873 19.0763 14.6353V14.6343Z" fill="#C92A1D" fill-opacity="0.9"/>
<path d="M14.5532 13.4033C13.8652 13.5753 13.2762 14.0193 12.9222 14.6333C12.1982 15.8853 12.6272 17.4873 13.8792 18.2113C13.8772 18.2083 13.8752 18.2063 13.8732 18.2033C12.7352 16.6903 13.0402 14.5403 14.5532 13.4023V13.4033Z" fill="#C92A1D" fill-opacity="0.9"/>
<path d="M15.3119 13.215C15.5349 13.372 15.8439 13.318 16.0009 13.095C16.1579 13.318 16.4669 13.372 16.6899 13.215C16.8769 13.083 16.9499 12.84 16.8649 12.627C16.8169 12.881 16.5729 13.048 16.3189 13C16.1849 12.975 16.0689 12.893 16.0009 12.775C15.9329 12.893 15.8169 12.975 15.6829 13C15.4289 13.048 15.1849 12.881 15.1369 12.627C15.0519 12.84 15.1239 13.083 15.3119 13.215Z" fill="#C92A1D" fill-opacity="0.9"/>
</svg>
